<svg xmlns="http://www.w3.org/2000/svg" width="12" height="12" viewBox="0 0 12 12">
    <path fill="#16254F" d="M11.942 4.413c-.117-.316-.409-.57-.7-.57l-3.09-.442L6.81.493C6.577.05 6.052-.14 5.586.113c-.175.127-.292.253-.35.38L3.894 3.4l-3.148.506c-.292.063-.584.253-.7.569-.117.316 0 .632.233.885l2.274 2.403-.466 3.224c-.059.317.116.696.35.822.291.19.641.19.933.064l2.682-1.518 2.74 1.518c.117.063.292.126.409.126.175 0 .35-.063.525-.19.291-.19.408-.505.35-.885L9.55 7.637l2.216-2.34c.233-.189.291-.568.175-.884"/>
</svg>
